<svg width="85" height="84" viewBox="0 0 85 84" fill="none" xmlns="http://www.w3.org/2000/svg">
<g clip-path="url(#clip0_279_2792)">
<g filter="url(#filter0_i_279_2792)">
<path d="M44.5426 14.6201C43.3161 11.8882 45.6646 8.95988 48.5543 9.47003C63.9875 12.1943 75.7114 25.6646 75.7114 41.8807C75.7114 60.0577 60.9756 74.7935 42.7986 74.7935C26.5825 74.7935 13.1122 63.0696 10.3879 47.6365C9.87769 44.7463 12.8063 42.3986 15.5379 43.6247C18.2732 44.8528 21.3084 45.5377 24.5136 45.5377C36.6318 45.5377 46.4556 35.714 46.4556 23.5957C46.4556 20.3906 45.7706 17.3553 44.5426 14.6201Z" fill="url(#paint0_linear_279_2792)"/>
</g>
<g filter="url(#filter1_i_279_2792)">
<path d="M17.5378 25.0577L17.7879 25.6043C18.858 27.818 20.5437 29.6763 22.6423 30.9563L23.0319 31.1846C23.213 31.2865 23.213 31.5472 23.0319 31.649L22.6423 31.8774C20.5437 33.1574 18.858 35.0155 17.7879 37.2292L17.5378 37.7757C17.4398 37.9962 17.1269 37.9962 17.029 37.7757L16.7788 37.2292C15.7088 35.0155 14.0231 33.1574 11.9245 31.8774L11.5348 31.649C11.3538 31.5472 11.3538 31.2865 11.5348 31.1846L11.9245 30.9563C14.0231 29.6763 15.7088 27.818 16.7788 25.6043L17.029 25.0577C17.1269 24.8373 17.4398 24.8373 17.5378 25.0577ZM28.6467 5.99886C28.8027 5.64792 29.3008 5.64792 29.4567 5.99886L29.8548 6.86881C31.5581 10.3924 34.2413 13.3503 37.5819 15.3877L38.2021 15.7512C38.49 15.9133 38.49 16.3283 38.2021 16.4904L37.5819 16.8538C34.2413 18.8913 31.5581 21.8491 29.8548 25.3727C29.716 25.6599 29.5863 25.9512 29.4567 26.2427C29.3008 26.5936 28.8027 26.5936 28.6467 26.2427L28.2487 25.3727C26.5454 21.8491 23.8622 18.8913 20.5218 16.8538L19.9015 16.4904C19.6133 16.3283 19.6133 15.9133 19.9015 15.7512L20.5218 15.3877C23.8622 13.3503 26.5454 10.3924 28.2487 6.86881L28.6467 5.99886Z" fill="url(#paint1_linear_279_2792)"/>
</g>
</g>
<defs>
<filter id="filter0_i_279_2792" x="10.3295" y="9.41168" width="70.8673" height="70.8672" filterUnits="userSpaceOnUse" color-interpolation-filters="sRGB">
<feFlood flood-opacity="0" result="BackgroundImageFix"/>
<feBlend mode="normal" in="SourceGraphic" in2="BackgroundImageFix" result="shape"/>
<feColorMatrix in="SourceAlpha" type="matrix" values="0 0 0 0 0 0 0 0 0 0 0 0 0 0 0 0 0 0 127 0" result="hardAlpha"/>
<feOffset dx="5.48546" dy="5.48546"/>
<feGaussianBlur stdDeviation="5.48546"/>
<feComposite in2="hardAlpha" operator="arithmetic" k2="-1" k3="1"/>
<feColorMatrix type="matrix" values="0 0 0 0 0.650967 0 0 0 0 0.522083 0 0 0 0 0.86125 0 0 0 0.7 0"/>
<feBlend mode="normal" in2="shape" result="effect1_innerShadow_279_2792"/>
</filter>
<filter id="filter1_i_279_2792" x="11.399" y="5.73566" width="27.019" height="32.2054" filterUnits="userSpaceOnUse" color-interpolation-filters="sRGB">
<feFlood flood-opacity="0" result="BackgroundImageFix"/>
<feBlend mode="normal" in="SourceGraphic" in2="BackgroundImageFix" result="shape"/>
<feColorMatrix in="SourceAlpha" type="matrix" values="0 0 0 0 0 0 0 0 0 0 0 0 0 0 0 0 0 0 127 0" result="hardAlpha"/>
<feOffset/>
<feGaussianBlur stdDeviation="1.47109"/>
<feComposite in2="hardAlpha" operator="arithmetic" k2="-1" k3="1"/>
<feColorMatrix type="matrix" values="0 0 0 0 0.650967 0 0 0 0 0.522083 0 0 0 0 0.86125 0 0 0 0.7 0"/>
<feBlend mode="normal" in2="shape" result="effect1_innerShadow_279_2792"/>
</filter>
<linearGradient id="paint0_linear_279_2792" x1="43.0205" y1="9.41168" x2="43.0205" y2="74.7935" gradientUnits="userSpaceOnUse">
<stop stop-color="#A3A9DF"/>
<stop offset="0.853177" stop-color="#1F2FBC"/>
</linearGradient>
<linearGradient id="paint1_linear_279_2792" x1="24.9085" y1="5.73566" x2="24.9085" y2="37.941" gradientUnits="userSpaceOnUse">
<stop stop-color="#A3A9DF"/>
<stop offset="0.710722" stop-color="#1F2FBC"/>
</linearGradient>
<clipPath id="clip0_279_2792">
<rect width="83.6888" height="83.6888" fill="white" transform="translate(0.93808 0.0202026)"/>
</clipPath>
</defs>
</svg>
